<svg width="3121" height="697" viewBox="0 0 3121 697" fill="none" xmlns="http://www.w3.org/2000/svg">
<path d="M278.968 307.314C265.807 318.212 249.72 326.091 230.65 330.903C246.678 333.592 259.606 340.055 269.433 350.293C279.261 360.53 284.174 372.608 284.174 386.619C284.174 390.394 283.648 394.545 282.654 399.121C277.974 422.002 263.701 440.449 239.893 454.413C216.026 468.425 186.252 475.407 150.569 475.407H0L62.0645 193.711H206.199C237.904 193.711 262.297 199.089 279.495 209.846C296.693 220.602 305.292 234.991 305.292 253.013C305.292 257.306 304.765 261.741 303.771 266.317C300.436 282.735 292.188 296.369 279.027 307.267L278.968 307.314ZM214.155 384.213C214.155 374.542 209.884 366.946 201.402 361.427C192.92 355.907 181.163 353.171 166.129 353.171H97.0452L80.5493 430.636H151.096C168.118 430.636 182.099 427.286 193.154 420.54C204.152 413.841 210.82 404.405 213.16 392.281C213.804 388.506 214.155 385.817 214.155 384.213ZM231.177 267.544C231.177 258.108 227.316 250.843 219.653 245.748C211.99 240.652 200.817 238.058 186.135 238.058H122.608L106.58 310.711H170.633C186.954 310.711 200.466 307.55 211.171 301.228C221.818 294.906 228.369 286.084 230.709 274.809C231.06 273.205 231.235 270.752 231.235 267.544H231.177Z" fill="#274356"/>
<path d="M453.862 193.711L392.324 475.407H321.777L383.842 193.711H453.92H453.862Z" fill="#274356"/>
<path d="M735.109 213.29C753.477 226.358 762.602 243.342 762.602 264.336C762.602 269.431 762.076 274.715 761.081 280.093C757.104 298.398 746.808 315.004 730.312 329.912C713.816 344.867 691.705 355.294 664.036 361.191L722.591 475.407H641.047L588.986 365.625H555.467L531.425 475.407H460.879L522.943 193.711H654.033C689.716 193.711 716.741 200.221 735.109 213.29ZM690.067 271.601C690.067 261.363 686.089 253.438 678.075 247.776C670.061 242.115 657.894 239.284 641.515 239.284H582.96L564.417 323.637H622.972C641.632 323.637 656.607 319.863 667.78 312.315C678.953 304.814 686.031 294.435 689.073 281.225C689.716 276.366 690.067 273.158 690.067 271.554V271.601Z" fill="#274356"/>
<path d="M1049.61 207.204C1073.13 216.215 1091.14 229.047 1103.66 245.748C1116.18 262.448 1122.44 282.216 1122.44 305.097C1122.44 315.334 1121.27 325.289 1118.93 334.96C1112.9 363.219 1099.98 387.893 1080.15 409.029C1060.32 430.164 1035.16 446.487 1004.8 458.046C974.444 469.604 940.75 475.407 903.722 475.407H781.641L843.705 193.711H965.787C998.135 193.711 1026.1 198.24 1049.61 207.251V207.204ZM1002.05 404.358C1025.57 387.704 1040.66 364.54 1047.33 334.96C1048.97 326.091 1049.85 318.401 1049.85 311.938C1049.85 289.34 1041.6 271.837 1025.1 259.476C1008.61 247.116 984.505 240.888 952.801 240.888H903.781L862.775 429.362H911.795C948.472 429.362 978.597 421.012 1002.11 404.358H1002.05Z" fill="#274356"/>
<path d="M1642.56 207.204C1666.08 216.215 1684.09 229.047 1696.61 245.748C1709.13 262.448 1715.39 282.216 1715.39 305.097C1715.39 315.334 1714.22 325.289 1711.88 334.96C1705.85 363.219 1692.93 387.893 1673.1 409.029C1653.27 430.164 1628.11 446.487 1597.75 458.046C1567.39 469.604 1533.7 475.407 1496.67 475.407H1374.59L1436.65 193.711H1558.74C1591.08 193.711 1619.05 198.24 1642.56 207.251V207.204ZM1595 404.358C1618.52 387.704 1633.61 364.54 1640.28 334.96C1641.92 326.091 1642.79 318.401 1642.79 311.938C1642.79 289.34 1634.55 271.837 1618.05 259.476C1601.55 247.116 1577.45 240.888 1545.75 240.888H1496.73L1455.72 429.362H1504.74C1541.42 429.362 1571.55 421.012 1595.06 404.358H1595Z" fill="#274356"/>
<path d="M1865.51 193.711L1803.97 475.407H1733.43L1795.49 193.711H1865.57H1865.51Z" fill="#274356"/>
<path d="M1982.09 193.711L2028.66 417.709L2173.79 193.711H2248.37L2058.72 475.407H1973.67L1907.1 193.711H1982.15H1982.09Z" fill="#274356"/>
<path d="M2350.9 237.679L2334.87 310.71H2452.45L2442.91 354.302H2325.33L2308.84 430.588H2441.45L2431.45 475.406H2228.29L2290.35 193.285H2493.04L2483.51 237.679H2350.9Z" fill="#274356"/>
<path d="M2768.76 213.29C2787.13 226.358 2796.31 243.342 2796.31 264.336C2796.31 269.431 2795.78 274.715 2794.79 280.093C2790.75 298.398 2780.52 315.004 2764.02 329.912C2747.52 344.867 2725.41 355.294 2697.74 361.191L2756.3 475.407H2674.75L2622.69 365.625H2589.17L2565.13 475.407H2494.59L2556.65 193.711H2687.74C2723.42 193.711 2750.45 200.221 2768.82 213.29H2768.76ZM2723.72 271.601C2723.72 261.363 2719.74 253.438 2711.72 247.776C2703.71 242.115 2691.54 239.284 2675.16 239.284H2616.61L2598.07 323.637H2656.62C2675.28 323.637 2690.26 319.863 2701.43 312.315C2712.6 304.814 2719.68 294.435 2722.72 281.225C2723.36 276.366 2723.72 273.158 2723.72 271.554V271.601Z" fill="#274356"/>
<path d="M3115.04 193.711L3105.04 238.105H3012.44L2960.38 475.407H2889.83L2941.9 238.105H2848.83L2858.83 193.711H3115.04Z" fill="#274356"/>
<path d="M1.90605 567.308L1.78906 539.898L878.12 537.114C1018.98 537.114 1090.58 473.661 1207.51 321.797C1330.88 161.676 1448.28 93.3164 1600.14 93.3164L2903.55 90.7217V118.132L1600.2 120.727C1461.5 120.727 1352.76 185.171 1236.35 336.233C1130.18 474.085 1047.88 564.477 878.179 564.477L1.90605 567.308Z" fill="#274356"/>
<path d="M2895.08 150.732H2921.41L2948.31 130.446C2983.82 136.531 3057.53 139.834 3088 71.4738C3090.11 66.8976 3091.98 62.6988 3096.19 62.5101H3111.23L3098.71 50.5742H3098.59C3097.3 37.7891 3084.02 27.7403 3067.82 27.7403C3059.69 27.7403 3052.26 30.2879 3046.76 34.4395L3028.39 48.6399L2935.97 0C2921.93 17.3613 2925.56 44.7714 2935.33 58.5C2942.41 68.4544 2954.69 80.579 2979.26 87.3726C2996.92 92.279 3014.53 93.3641 3020.09 93.2226C3002.07 99.0254 2984.11 97.8459 2969.2 94.4492L2941.24 116.104H2940.88L2894.96 150.732H2895.08ZM3072.5 49.206C3072.5 46.8943 3074.84 44.9601 3077.77 44.9601C3080.69 44.9601 3083.03 46.8472 3083.03 49.206C3083.03 51.5177 3080.69 53.452 3077.77 53.452C3074.84 53.452 3072.5 51.5649 3072.5 49.206Z" fill="#274356"/>
<path d="M50.2613 639.208V646.851H31.4255V696.34H19.7848V646.851H0.832031V639.208H50.2613Z" fill="#274356"/>
<path d="M128.765 639.208V696.34H117.124V671.336H83.7814V696.34H72.1406V639.208H83.7814V663.693H117.124V639.208H128.765Z" fill="#274356"/>
<path d="M165.836 646.756V663.504H190.287V671.147H165.836V688.65H193.329V696.293H154.195V639.066H193.329V646.709H165.836V646.756Z" fill="#274356"/>
<path d="M255.449 652.606C258.666 648.171 263.053 644.68 268.611 642.227C274.168 639.727 280.193 638.5 286.803 638.5C294.349 638.5 301.076 640.01 306.926 642.982C312.775 645.954 317.045 650.2 319.736 655.673H305.756C303.942 652.653 301.368 650.389 298.093 648.926C294.817 647.464 291.073 646.709 286.803 646.709C282.123 646.709 277.911 647.558 274.285 649.256C270.599 650.955 267.733 653.408 265.686 656.569C263.638 659.73 262.585 663.457 262.585 667.656C262.585 671.854 263.638 675.581 265.686 678.742C267.733 681.903 270.599 684.356 274.285 686.102C277.97 687.848 282.123 688.697 286.803 688.697C291.073 688.697 294.875 687.942 298.093 686.479C301.31 685.017 303.884 682.752 305.756 679.733H319.736C317.104 685.206 312.834 689.452 306.926 692.377C301.076 695.349 294.349 696.811 286.803 696.811C280.134 696.811 274.051 695.585 268.552 693.084C263.053 690.584 258.666 687.14 255.449 682.705C252.232 678.271 250.594 673.27 250.594 667.656C250.594 662.042 252.232 657.041 255.449 652.606Z" fill="#274356"/>
<path d="M355.094 688.791H379.019V696.34H343.453V639.208H355.094V688.791Z" fill="#274356"/>
<path d="M410.516 646.756V663.504H434.967V671.147H410.516V688.65H438.009V696.293H398.875V639.066H438.009V646.709H410.516V646.756Z" fill="#274356"/>
<path d="M505.254 684.688H475.596L470.507 696.34H458.398L483.786 639.114H497.24L522.627 696.34H510.402L505.312 684.688H505.254ZM501.978 677.045L490.454 650.484L478.814 677.045H501.978Z" fill="#274356"/>
<path d="M580.497 696.34L564.177 673.506H555.285V696.34H543.645V639.208H568.096C573.536 639.208 578.157 639.963 581.901 641.52C585.645 643.077 588.511 645.105 590.383 647.7C592.255 650.295 593.191 653.172 593.191 656.333C593.191 660.06 591.845 663.457 589.155 666.477C586.464 669.496 582.31 671.572 576.753 672.704L594.302 696.387H580.439L580.497 696.34ZM555.344 666.005H568.213C572.542 666.005 575.817 665.108 578.04 663.363C580.263 661.617 581.375 659.258 581.375 656.286C581.375 653.314 580.263 651.002 578.099 649.351C575.934 647.7 572.659 646.851 568.213 646.851H555.344V666.005Z" fill="#274356"/>
<path d="M655.988 652.606C659.205 648.171 663.593 644.68 669.15 642.227C674.707 639.727 680.732 638.5 687.342 638.5C694.888 638.5 701.615 640.01 707.465 642.982C713.314 645.954 717.584 650.2 720.275 655.673H706.295C704.481 652.653 701.908 650.389 698.632 648.926C695.356 647.464 691.612 646.709 687.342 646.709C682.662 646.709 678.451 647.558 674.824 649.256C671.139 650.955 668.272 653.408 666.225 656.569C664.177 659.73 663.125 663.457 663.125 667.656C663.125 671.854 664.177 675.581 666.225 678.742C668.272 681.903 671.197 684.356 674.824 686.102C678.509 687.848 682.662 688.697 687.342 688.697C691.612 688.697 695.414 687.942 698.632 686.479C701.849 685.017 704.423 682.752 706.295 679.733H720.275C717.643 685.206 713.373 689.452 707.465 692.377C701.615 695.349 694.888 696.811 687.342 696.811C680.673 696.811 674.59 695.585 669.091 693.084C663.593 690.584 659.205 687.14 655.988 682.705C652.771 678.271 651.133 673.27 651.133 667.656C651.133 662.042 652.771 657.041 655.988 652.606Z" fill="#274356"/>
<path d="M800.601 639.208V696.34H788.96V671.336H755.617V696.34H743.977V639.208H755.617V663.693H788.96V639.208H800.601Z" fill="#274356"/>
<path d="M840.165 693.179C834.608 690.678 830.221 687.187 827.004 682.752C823.786 678.318 822.148 673.27 822.148 667.656C822.148 662.042 823.786 657.041 827.004 652.606C830.221 648.171 834.608 644.68 840.165 642.227C845.722 639.727 851.748 638.5 858.358 638.5C864.968 638.5 871.11 639.727 876.667 642.227C882.224 644.727 886.553 648.171 889.77 652.606C892.987 657.041 894.567 662.042 894.567 667.656C894.567 673.27 892.987 678.271 889.77 682.752C886.553 687.234 882.224 690.678 876.667 693.179C871.11 695.679 865.026 696.906 858.358 696.906C851.689 696.906 845.722 695.679 840.165 693.179ZM870.876 686.196C874.561 684.451 877.427 681.998 879.475 678.79C881.522 675.581 882.575 671.854 882.575 667.656C882.575 663.457 881.522 659.73 879.475 656.569C877.427 653.408 874.561 650.955 870.876 649.256C867.191 647.558 863.037 646.709 858.358 646.709C853.678 646.709 849.466 647.558 845.839 649.256C842.154 650.955 839.288 653.408 837.24 656.569C835.193 659.73 834.14 663.457 834.14 667.656C834.14 671.854 835.193 675.581 837.24 678.79C839.288 681.998 842.154 684.451 845.839 686.196C849.525 687.942 853.678 688.791 858.358 688.791C863.037 688.791 867.249 687.942 870.876 686.196Z" fill="#274356"/>
<path d="M927.75 639.208V696.34H916.109V639.208H927.75Z" fill="#274356"/>
<path d="M954.179 652.606C957.397 648.171 961.784 644.68 967.341 642.227C972.898 639.727 978.923 638.5 985.533 638.5C993.079 638.5 999.806 640.01 1005.66 642.982C1011.51 645.954 1015.78 650.2 1018.47 655.673H1004.49C1002.67 652.653 1000.1 650.389 996.823 648.926C993.547 647.464 989.804 646.709 985.533 646.709C980.854 646.709 976.642 647.558 973.015 649.256C969.33 650.955 966.464 653.408 964.416 656.569C962.369 659.73 961.316 663.457 961.316 667.656C961.316 671.854 962.369 675.581 964.416 678.742C966.464 681.903 969.33 684.356 973.015 686.102C976.7 687.848 980.854 688.697 985.533 688.697C989.804 688.697 993.606 687.942 996.823 686.479C1000.04 685.017 1002.61 682.752 1004.49 679.733H1018.47C1015.83 685.206 1011.56 689.452 1005.66 692.377C999.806 695.349 993.079 696.811 985.533 696.811C978.865 696.811 972.781 695.585 967.283 693.084C961.784 690.584 957.397 687.14 954.179 682.705C950.962 678.271 949.324 673.27 949.324 667.656C949.324 662.042 950.962 657.041 954.179 652.606Z" fill="#274356"/>
<path d="M1053.83 646.756V663.504H1078.28V671.147H1053.83V688.65H1081.32V696.293H1042.19V639.066H1081.32V646.709H1053.83V646.756Z" fill="#274356"/>
<path d="M1184.22 639.208V646.851H1154.15V663.693H1177.61V671.336H1154.15V696.34H1142.51V639.208H1184.22Z" fill="#274356"/>
<path d="M1219.29 693.179C1213.74 690.678 1209.35 687.187 1206.13 682.752C1202.92 678.318 1201.28 673.27 1201.28 667.656C1201.28 662.042 1202.92 657.041 1206.13 652.606C1209.35 648.171 1213.74 644.68 1219.29 642.227C1224.85 639.727 1230.88 638.5 1237.49 638.5C1244.1 638.5 1250.24 639.727 1255.8 642.227C1261.35 644.727 1265.68 648.171 1268.9 652.606C1272.12 657.041 1273.7 662.042 1273.7 667.656C1273.7 673.27 1272.12 678.271 1268.9 682.752C1265.68 687.234 1261.35 690.678 1255.8 693.179C1250.24 695.679 1244.16 696.906 1237.49 696.906C1230.82 696.906 1224.85 695.679 1219.29 693.179ZM1250 686.196C1253.69 684.451 1256.56 681.998 1258.6 678.79C1260.65 675.581 1261.7 671.854 1261.7 667.656C1261.7 663.457 1260.65 659.73 1258.6 656.569C1256.56 653.408 1253.69 650.955 1250 649.256C1246.32 647.558 1242.17 646.709 1237.49 646.709C1232.81 646.709 1228.6 647.558 1224.97 649.256C1221.28 650.955 1218.42 653.408 1216.37 656.569C1214.32 659.73 1213.27 663.457 1213.27 667.656C1213.27 671.854 1214.32 675.581 1216.37 678.79C1218.42 681.998 1221.34 684.451 1224.97 686.196C1228.65 687.942 1232.81 688.791 1237.49 688.791C1242.17 688.791 1246.38 687.942 1250 686.196Z" fill="#274356"/>
<path d="M1332.09 696.34L1315.77 673.506H1306.88V696.34H1295.24V639.208H1319.69C1325.13 639.208 1329.75 639.963 1333.49 641.52C1337.24 643.077 1340.1 645.105 1341.98 647.7C1343.85 650.295 1344.78 653.172 1344.78 656.333C1344.78 660.06 1343.44 663.457 1340.75 666.477C1338.06 669.496 1333.9 671.572 1328.35 672.704L1345.9 696.387H1332.03L1332.09 696.34ZM1306.88 666.005H1319.75C1324.08 666.005 1327.35 665.108 1329.58 663.363C1331.8 661.617 1332.91 659.258 1332.91 656.286C1332.91 653.314 1331.8 651.002 1329.63 649.351C1327.47 647.7 1324.19 646.851 1319.75 646.851H1306.88V666.005Z" fill="#274356"/>
<path d="M1453.54 664.447C1451.84 667.042 1449.15 669.118 1445.41 670.722C1441.66 672.326 1436.87 673.128 1431.02 673.128H1418.15V696.292H1406.51V639.16H1430.96C1436.4 639.16 1441.02 639.915 1444.76 641.425C1448.51 642.934 1451.37 644.963 1453.25 647.558C1455.12 650.152 1456.05 653.03 1456.05 656.191C1456.05 659.116 1455.24 661.853 1453.48 664.4L1453.54 664.447ZM1440.9 663.079C1443.07 661.475 1444.18 659.163 1444.18 656.191C1444.18 649.964 1439.79 646.803 1431.02 646.803H1418.15V665.438H1431.02C1435.4 665.438 1438.74 664.636 1440.9 663.032V663.079Z" fill="#274356"/>
<path d="M1514.18 696.34L1497.86 673.506H1488.97V696.34H1477.33V639.208H1501.78C1507.22 639.208 1511.84 639.963 1515.58 641.52C1519.33 643.077 1522.19 645.105 1524.07 647.7C1525.94 650.295 1526.87 653.172 1526.87 656.333C1526.87 660.06 1525.53 663.457 1522.84 666.477C1520.15 669.496 1515.99 671.572 1510.44 672.704L1527.99 696.387H1514.12L1514.18 696.34ZM1489.03 666.005H1501.9C1506.23 666.005 1509.5 665.108 1511.72 663.363C1513.95 661.617 1515.06 659.258 1515.06 656.286C1515.06 653.314 1513.95 651.002 1511.78 649.351C1509.62 647.7 1506.34 646.851 1501.9 646.851H1489.03V666.005Z" fill="#274356"/>
<path d="M1563.61 646.756V663.504H1588.06V671.147H1563.61V688.65H1591.1V696.293H1551.96V639.066H1591.1V646.709H1563.61V646.756Z" fill="#274356"/>
<path d="M1676.61 639.208L1649.99 696.34H1636.54L1609.86 639.208H1622.32L1643.32 686.716L1664.44 639.208H1676.67H1676.61Z" fill="#274356"/>
<path d="M1708.15 646.756V663.504H1732.6V671.147H1708.15V688.65H1735.65V696.293H1696.51V639.066H1735.65V646.709H1708.15V646.756Z" fill="#274356"/>
<path d="M1818.28 696.34H1806.64L1771.66 653.692V696.34H1760.02V639.114H1771.66L1806.64 681.668V639.114H1818.28V696.34Z" fill="#274356"/>
<path d="M1889.53 639.208V646.851H1870.69V696.34H1859.05V646.851H1840.1V639.208H1889.53Z" fill="#274356"/>
<path d="M1923.05 639.208V696.34H1911.41V639.208H1923.05Z" fill="#274356"/>
<path d="M2006.71 696.34H1995.07L1960.09 653.692V696.34H1948.45V639.114H1960.09L1995.07 681.668V639.114H2006.71V696.34Z" fill="#274356"/>
<path d="M2083.45 655.673C2081.63 652.842 2079.06 650.672 2075.78 649.209C2072.51 647.747 2068.76 647.039 2064.49 647.039C2059.81 647.039 2055.6 647.888 2051.98 649.587C2048.29 651.285 2045.42 653.691 2043.38 656.805C2041.33 659.919 2040.28 663.551 2040.28 667.656C2040.28 671.76 2041.33 675.393 2043.38 678.554C2045.42 681.715 2048.29 684.121 2051.98 685.819C2055.66 687.517 2059.81 688.367 2064.49 688.367C2070.81 688.367 2075.96 686.951 2079.88 684.073C2083.8 681.243 2086.25 677.374 2087.13 672.468H2060.52V664.967H2099.53V672.279C2098.77 676.714 2096.84 680.818 2093.68 684.545C2090.53 688.272 2086.43 691.244 2081.34 693.462C2076.25 695.679 2070.64 696.811 2064.49 696.811C2057.83 696.811 2051.74 695.585 2046.24 693.084C2040.74 690.584 2036.36 687.14 2033.14 682.705C2029.92 678.271 2028.29 673.27 2028.29 667.656C2028.29 662.042 2029.92 657.041 2033.14 652.606C2036.36 648.171 2040.74 644.68 2046.3 642.227C2051.86 639.727 2057.88 638.5 2064.49 638.5C2072.04 638.5 2078.77 640.01 2084.62 642.982C2090.47 645.954 2094.74 650.2 2097.43 655.673H2083.45Z" fill="#274356"/>
<path d="M2205.49 671.855C2208.13 674.544 2209.47 677.563 2209.47 680.96C2209.47 683.885 2208.54 686.48 2206.66 688.791C2204.79 691.103 2202.1 692.943 2198.59 694.311C2195.08 695.632 2190.93 696.34 2186.25 696.34H2157.94V639.208H2184.96C2189.76 639.208 2193.91 639.868 2197.36 641.189C2200.82 642.51 2203.45 644.256 2205.2 646.473C2206.96 648.691 2207.83 651.191 2207.83 653.927C2207.83 657.23 2206.72 659.966 2204.56 662.136C2202.39 664.306 2199.47 665.958 2195.78 666.995C2199.59 667.562 2202.8 669.166 2205.49 671.855ZM2169.52 663.221H2183.91C2187.71 663.221 2190.7 662.514 2192.86 661.145C2195.02 659.73 2196.08 657.749 2196.08 655.107C2196.08 652.465 2195.02 650.531 2192.86 649.068C2190.7 647.606 2187.71 646.898 2183.91 646.898H2169.52V663.268V663.221ZM2194.5 686.385C2196.72 684.829 2197.89 682.706 2197.89 679.969C2197.89 677.233 2196.72 674.968 2194.32 673.317C2191.92 671.666 2188.77 670.864 2184.85 670.864H2169.58V688.697H2185.26C2189.17 688.697 2192.27 687.942 2194.56 686.385H2194.5Z" fill="#274356"/>
<path d="M2243.93 639.208V696.34H2232.29V639.208H2243.93Z" fill="#274356"/>
<path d="M2306.18 696.34L2289.86 673.506H2280.97V696.34H2269.33V639.208H2293.78C2299.22 639.208 2303.84 639.963 2307.58 641.52C2311.33 643.077 2314.19 645.105 2316.07 647.7C2317.94 650.295 2318.87 653.172 2318.87 656.333C2318.87 660.06 2317.53 663.457 2314.84 666.477C2312.15 669.496 2307.99 671.572 2302.44 672.704L2319.99 696.387H2306.12L2306.18 696.34ZM2281.03 666.005H2293.9C2298.23 666.005 2301.5 665.108 2303.72 663.363C2305.95 661.617 2307.06 659.258 2307.06 656.286C2307.06 653.314 2305.95 651.002 2303.78 649.351C2301.62 647.7 2298.34 646.851 2293.9 646.851H2281.03V666.005Z" fill="#274356"/>
<path d="M2386.94 642.699C2392.61 645.011 2397 648.36 2400.1 652.748C2403.2 657.088 2404.72 662.183 2404.72 667.986C2404.72 673.789 2403.2 678.837 2400.1 683.13C2397 687.423 2392.61 690.679 2386.94 692.943C2381.27 695.208 2374.66 696.34 2367.11 696.34H2343.95V639.208H2367.11C2374.66 639.208 2381.27 640.387 2386.94 642.699ZM2386.18 683.272C2390.57 679.639 2392.79 674.544 2392.79 667.986C2392.79 661.429 2390.57 656.192 2386.18 652.465C2381.79 648.738 2375.42 646.898 2367.11 646.898H2355.59V688.744H2367.11C2375.42 688.744 2381.73 686.951 2386.18 683.319V683.272Z" fill="#274356"/>
<path d="M2464.11 652.606C2467.33 648.171 2471.72 644.68 2477.27 642.227C2482.83 639.727 2488.86 638.5 2495.47 638.5C2503.01 638.5 2509.74 640.01 2515.59 642.982C2521.44 645.954 2525.71 650.2 2528.4 655.673H2514.42C2512.61 652.653 2510.03 650.389 2506.76 648.926C2503.48 647.464 2499.74 646.709 2495.47 646.709C2490.79 646.709 2486.58 647.558 2482.95 649.256C2479.26 650.955 2476.4 653.408 2474.35 656.569C2472.3 659.73 2471.25 663.457 2471.25 667.656C2471.25 671.854 2472.3 675.581 2474.35 678.742C2476.4 681.903 2479.26 684.356 2482.95 686.102C2486.63 687.848 2490.79 688.697 2495.47 688.697C2499.74 688.697 2503.54 687.942 2506.76 686.479C2509.97 685.017 2512.55 682.752 2514.42 679.733H2528.4C2525.77 685.206 2521.5 689.452 2515.59 692.377C2509.74 695.349 2503.01 696.811 2495.47 696.811C2488.8 696.811 2482.71 695.585 2477.22 693.084C2471.72 690.584 2467.33 687.14 2464.11 682.705C2460.9 678.271 2459.26 673.27 2459.26 667.656C2459.26 662.042 2460.9 657.041 2464.11 652.606Z" fill="#274356"/>
<path d="M2566.16 693.179C2560.6 690.678 2556.21 687.187 2553 682.752C2549.78 678.271 2548.14 673.27 2548.14 667.656C2548.14 662.042 2549.78 657.041 2553 652.606C2556.21 648.171 2560.6 644.68 2566.16 642.227C2571.71 639.727 2577.74 638.5 2584.35 638.5C2590.96 638.5 2597.1 639.727 2602.66 642.227C2608.22 644.727 2612.55 648.171 2615.76 652.606C2618.98 657.041 2620.56 662.042 2620.56 667.656C2620.56 673.27 2618.98 678.271 2615.76 682.752C2612.55 687.234 2608.22 690.678 2602.66 693.179C2597.1 695.679 2591.02 696.906 2584.35 696.906C2577.68 696.906 2571.71 695.679 2566.16 693.179ZM2596.93 686.196C2600.61 684.451 2603.48 681.998 2605.53 678.79C2607.57 675.581 2608.63 671.854 2608.63 667.656C2608.63 663.457 2607.57 659.73 2605.53 656.569C2603.48 653.408 2600.55 650.955 2596.93 649.256C2593.24 647.558 2589.09 646.709 2584.41 646.709C2579.73 646.709 2575.52 647.558 2571.89 649.256C2568.2 650.955 2565.34 653.408 2563.29 656.569C2561.24 659.73 2560.19 663.457 2560.19 667.656C2560.19 671.854 2561.24 675.581 2563.29 678.79C2565.34 681.998 2568.2 684.451 2571.89 686.196C2575.58 687.942 2579.73 688.791 2584.41 688.791C2589.09 688.791 2593.3 687.942 2596.93 686.196Z" fill="#274356"/>
<path d="M2653.8 688.791H2677.73V696.34H2642.16V639.208H2653.8V688.791Z" fill="#274356"/>
<path d="M2709.26 688.791H2733.19V696.34H2697.62V639.208H2709.26V688.791Z" fill="#274356"/>
<path d="M2764.72 639.208V696.34H2753.08V639.208H2764.72Z" fill="#274356"/>
<path d="M2800.7 694.924C2796.9 693.603 2793.91 691.669 2791.75 689.216C2789.58 686.762 2788.47 683.885 2788.47 680.582H2800.87C2801.17 683.035 2802.34 685.064 2804.5 686.668C2806.66 688.272 2809.65 689.027 2813.51 689.027C2817.37 689.027 2820.65 688.225 2822.87 686.668C2825.09 685.111 2826.26 683.083 2826.26 680.629C2826.26 678.695 2825.56 677.138 2824.16 675.959C2822.75 674.779 2821.05 673.836 2818.95 673.175C2816.9 672.515 2814.04 671.807 2810.35 671.052C2805.73 670.062 2801.99 669.071 2799.06 668.033C2796.14 666.995 2793.68 665.438 2791.69 663.315C2789.64 661.192 2788.65 658.314 2788.65 654.776C2788.65 651.474 2789.64 648.596 2791.69 646.143C2793.74 643.69 2796.6 641.802 2800.23 640.481C2803.92 639.16 2808.13 638.5 2812.98 638.5C2819.83 638.5 2825.44 639.868 2829.83 642.652C2834.22 645.435 2836.62 649.209 2837.14 654.021H2824.27C2824.04 651.946 2822.87 650.153 2820.59 648.69C2818.36 647.228 2815.38 646.473 2811.7 646.473C2808.36 646.473 2805.67 647.181 2803.56 648.549C2801.46 649.917 2800.41 651.898 2800.41 654.446C2800.41 656.192 2801.05 657.654 2802.39 658.786C2803.74 659.919 2805.38 660.815 2807.43 661.475C2809.47 662.136 2812.22 662.844 2815.79 663.598C2820.47 664.636 2824.33 665.674 2827.26 666.712C2830.18 667.75 2832.7 669.354 2834.8 671.524C2836.85 673.694 2837.9 676.572 2837.9 680.205C2837.9 683.13 2836.91 685.866 2834.98 688.414C2833.05 690.961 2830.24 693.037 2826.5 694.641C2822.75 696.245 2818.42 697 2813.39 697C2808.65 697 2804.38 696.34 2800.52 694.971L2800.7 694.924Z" fill="#274356"/>
<path d="M2873.51 639.208V696.34H2861.87V639.208H2873.51Z" fill="#274356"/>
<path d="M2913.1 693.179C2907.55 690.678 2903.16 687.187 2899.94 682.752C2896.72 678.271 2895.09 673.27 2895.09 667.656C2895.09 662.042 2896.72 657.041 2899.94 652.606C2903.16 648.171 2907.55 644.68 2913.1 642.227C2918.66 639.727 2924.68 638.5 2931.29 638.5C2937.9 638.5 2944.05 639.727 2949.6 642.227C2955.16 644.727 2959.49 648.171 2962.71 652.606C2965.92 657.041 2967.5 662.042 2967.5 667.656C2967.5 673.27 2965.92 678.271 2962.71 682.752C2959.49 687.234 2955.16 690.678 2949.6 693.179C2944.05 695.679 2937.96 696.906 2931.29 696.906C2924.63 696.906 2918.66 695.679 2913.1 693.179ZM2943.81 686.196C2947.5 684.451 2950.36 681.998 2952.41 678.79C2954.46 675.581 2955.51 671.854 2955.51 667.656C2955.51 663.457 2954.46 659.73 2952.41 656.569C2950.36 653.408 2947.44 650.955 2943.81 649.256C2940.13 647.558 2935.97 646.709 2931.29 646.709C2926.62 646.709 2922.4 647.558 2918.78 649.256C2915.09 650.955 2912.23 653.408 2910.18 656.569C2908.13 659.73 2907.08 663.457 2907.08 667.656C2907.08 671.854 2908.13 675.581 2910.18 678.79C2912.23 681.998 2915.09 684.451 2918.78 686.196C2922.46 687.942 2926.62 688.791 2931.29 688.791C2935.97 688.791 2940.19 687.942 2943.81 686.196Z" fill="#274356"/>
<path d="M3047.31 696.34H3035.67L3000.69 653.692V696.34H2989.05V639.114H3000.69L3035.67 681.668V639.114H3047.31V696.34Z" fill="#274356"/>
<path d="M3083.26 694.924C3079.46 693.603 3076.48 691.669 3074.31 689.216C3072.15 686.762 3071.04 683.885 3071.04 680.582H3083.44C3083.73 683.035 3084.9 685.064 3087.07 686.668C3089.23 688.272 3092.21 689.027 3096.08 689.027C3099.94 689.027 3103.21 688.225 3105.43 686.668C3107.66 685.111 3108.83 683.083 3108.83 680.629C3108.83 678.695 3108.13 677.138 3106.72 675.959C3105.32 674.779 3103.62 673.836 3101.52 673.175C3099.47 672.515 3096.6 671.807 3092.92 671.052C3088.3 670.062 3084.55 669.071 3081.63 668.033C3078.7 666.995 3076.25 665.438 3074.26 663.315C3072.21 661.192 3071.21 658.314 3071.21 654.776C3071.21 651.474 3072.21 648.596 3074.26 646.143C3076.3 643.69 3079.17 641.802 3082.8 640.481C3086.48 639.16 3090.69 638.5 3095.55 638.5C3102.39 638.5 3108.01 639.868 3112.4 642.652C3116.78 645.435 3119.18 649.209 3119.71 654.021H3106.84C3106.6 651.946 3105.43 650.153 3103.15 648.69C3100.93 647.228 3097.95 646.473 3094.26 646.473C3090.93 646.473 3088.24 647.181 3086.13 648.549C3084.03 649.917 3082.97 651.898 3082.97 654.446C3082.97 656.192 3083.62 657.654 3084.96 658.786C3086.31 659.919 3087.94 660.815 3089.99 661.475C3092.04 662.136 3094.79 662.844 3098.36 663.598C3103.04 664.636 3106.9 665.674 3109.82 666.712C3112.75 667.75 3115.26 669.354 3117.37 671.524C3119.42 673.694 3120.47 676.572 3120.47 680.205C3120.47 683.13 3119.47 685.866 3117.54 688.414C3115.61 690.961 3112.81 693.037 3109.06 694.641C3105.32 696.245 3100.99 697 3095.96 697C3091.22 697 3086.95 696.34 3083.09 694.971L3083.26 694.924Z" fill="#274356"/>
</svg>
